<svg xmlns="http://www.w3.org/2000/svg" xmlns:xlink="http://www.w3.org/1999/xlink" xml:space="preserve" id="Layer_1" x="0" y="0" enable-background="new 0 0 154.08 140.82" version="1.1" viewBox="0 0 154.08 140.82"><style>.st0{fill:#010202}.st1{fill:none;stroke:#010202;stroke-width:2;stroke-miterlimit:10}</style><g><g><g><path d="m25.04 40.49 77.47-28.2c11.07-4.03 23.31 1.68 27.34 12.75l20.61 56.61c4.03 11.07-1.68 23.31-12.75 27.34l-77.47 28.2c-11.07 4.03-23.31-1.68-27.34-12.75L12.29 67.83c-4.03-11.07 1.68-23.31 12.75-27.34z" class="st0"/><path d="m25.04 40.49 77.47-28.2c11.07-4.03 23.31 1.68 27.34 12.75l20.61 56.61c4.03 11.07-1.68 23.31-12.75 27.34l-77.47 28.2c-11.07 4.03-23.31-1.68-27.34-12.75L12.29 67.83c-4.03-11.07 1.68-23.31 12.75-27.34z" class="st1"/></g><g><path fill="#fff" d="m15.04 30.49 77.47-28.2c11.07-4.03 23.31 1.68 27.34 12.75l20.61 56.61c4.03 11.07-1.68 23.31-12.75 27.34l-77.47 28.2c-11.07 4.03-23.31-1.68-27.34-12.75L2.29 57.83c-4.03-11.07 1.68-23.31 12.75-27.34z"/><path d="m15.04 30.49 77.47-28.2c11.07-4.03 23.31 1.68 27.34 12.75l20.61 56.61c4.03 11.07-1.68 23.31-12.75 27.34l-77.47 28.2c-11.07 4.03-23.31-1.68-27.34-12.75L2.29 57.83c-4.03-11.07 1.68-23.31 12.75-27.34z" class="st1"/></g></g><path d="M30.89 52.66c1.31.06 2.54.59 3.69 1.59l-.94-2.57 4.56-1.66 6.17 16.94c.84 2.3 1.08 4.18.73 5.63-.6 2.49-2.79 4.43-6.57 5.81-2.28.83-4.31 1.06-6.08.69-1.77-.37-3.05-1.42-3.85-3.14l5.08-1.85c.33.5.69.81 1.07.95.66.24 1.58.15 2.77-.29 1.68-.61 2.6-1.58 2.76-2.92.11-.86-.15-2.14-.77-3.84l-.42-1.15c-.17.93-.44 1.68-.82 2.24-.67 1.05-1.75 1.84-3.23 2.38-2.29.83-4.42.7-6.38-.42s-3.44-3.04-4.44-5.8c-.97-2.65-1.12-5.13-.46-7.41.66-2.29 2.2-3.87 4.63-4.75.8-.3 1.65-.45 2.5-.43zm6.25 12.22c.45-1.1.35-2.55-.31-4.35-.62-1.69-1.44-2.85-2.48-3.48-1.04-.63-2.15-.72-3.35-.29-1.63.59-2.48 1.77-2.54 3.54-.03.94.18 2.01.61 3.21.33.96.85 1.83 1.53 2.58 1.18 1.28 2.59 1.62 4.22 1.03a3.81 3.81 0 0 0 2.32-2.24zM63.15 58.68c-.83 2.41-2.78 4.17-5.85 5.29s-5.7 1.02-7.88-.29c-2.19-1.31-3.76-3.27-4.71-5.9-.94-2.58-1-5.08-.18-7.52.82-2.44 2.77-4.21 5.83-5.33 3.07-1.12 5.7-1.01 7.9.33 2.19 1.34 3.76 3.3 4.7 5.87.96 2.63 1.02 5.14.19 7.55zm-4.67-1.22c.38-1.24.24-2.75-.41-4.54-.65-1.79-1.52-3.03-2.6-3.73-1.08-.7-2.31-.8-3.67-.3-1.37.5-2.24 1.36-2.63 2.6-.39 1.23-.26 2.75.39 4.53.65 1.79 1.52 3.03 2.62 3.74 1.09.7 2.32.81 3.68.31 1.36-.5 2.24-1.37 2.62-2.61zM83.65 51.22c-.83 2.41-2.78 4.17-5.85 5.29s-5.7 1.02-7.88-.29c-2.18-1.31-3.75-3.27-4.71-5.9-.94-2.58-1-5.08-.18-7.52.82-2.43 2.76-4.21 5.83-5.33 3.07-1.12 5.7-1.01 7.9.33 2.19 1.34 3.76 3.3 4.7 5.87.96 2.63 1.02 5.14.19 7.55zM78.97 50c.38-1.24.24-2.75-.41-4.54s-1.52-3.03-2.6-3.73c-1.08-.7-2.31-.8-3.67-.3-1.37.5-2.24 1.36-2.63 2.6-.39 1.23-.25 2.74.39 4.53.65 1.79 1.52 3.04 2.62 3.74 1.09.7 2.32.81 3.68.31 1.37-.51 2.25-1.37 2.62-2.61zM93.12 30.35c1.01.17 1.96.59 2.77 1.23l-3.1-8.52 4.74-1.72 8.78 24.12-4.54 1.66-.9-2.49c-.28 1.3-.76 2.35-1.44 3.14-.68.79-1.65 1.42-2.92 1.88-2.09.76-4.15.55-6.19-.61-2.04-1.17-3.54-3.07-4.5-5.71-1.11-3.05-1.28-5.71-.51-7.96.77-2.26 2.33-3.81 4.67-4.67 1-.4 2.08-.52 3.14-.35zm5.78 12.3c.33-1.23.21-2.63-.36-4.19-.8-2.19-1.92-3.55-3.36-4.08-.86-.32-1.81-.32-2.67 0-1.37.5-2.18 1.38-2.44 2.64-.26 1.26-.12 2.66.44 4.19.6 1.65 1.41 2.85 2.42 3.6s2.18.89 3.5.42c1.32-.49 2.14-1.34 2.47-2.58zM41.93 84.29l4.74-1.72 7.4 11.87-1.9-13.88 4.87-1.77 1.32 19.74-4.8 1.75-7.54-11.99 1.9 14.04-4.85 1.76-11.51-16.02 5.01-1.83 7.45 11.8-2.09-13.75zM63.64 73.98 58.9 75.7l-1.57-4.31 4.74-1.72 1.57 4.31zm-3.97 3.85 4.74-1.72 6.51 17.86-4.74 1.72-6.51-17.86zM68.37 78.62l-1.21-3.33 2.49-.91-1.81-4.98 4.62-1.68 1.81 4.98 2.9-1.06 1.21 3.33-2.9 1.06 3.44 9.44c.27.73.53 1.15.78 1.27.25.11.85 0 1.8-.35.14-.05.29-.11.45-.17.16-.06.31-.13.46-.19l1.27 3.49-2.18.89c-2.18.88-3.83 1.05-4.94.5-.72-.34-1.28-1.07-1.69-2.19l-4-10.99-2.5.89zM92.98 65.82c1.02.05 2 .38 2.85.95a5.03 5.03 0 0 1 1.64 1.73c.37.67.84 1.8 1.42 3.39l3.82 10.5-4.77 1.73-3.96-10.88c-.35-.96-.79-1.68-1.34-2.15-.73-.68-1.68-.8-2.86-.37-1.23.45-2.01 1.2-2.34 2.26-.33 1.06-.22 2.35.34 3.88l3.52 9.68-4.67 1.7-8.76-24.07 4.67-1.7 3.1 8.52c.3-1.28.81-2.29 1.55-3.02a7.06 7.06 0 0 1 2.57-1.64c1.04-.38 2.13-.55 3.22-.51zM106.45 85.78l-.6-1.65 18.73-6.82.6 1.65-18.73 6.82z" class="st0"/></g></svg>